<mxfile host="app.diagrams.net" modified="2020-07-12T03:23:07.853Z" agent="5.0 (Macintosh; Intel Mac OS X 10_15_5) AppleWebKit/537.36 (KHTML, like Gecko) Chrome/83.0.4103.116 Safari/537.36" etag="fy6aJ3il6q8HFQYW9yMS" version="13.4.0" type="github">
  <diagram id="PiNUQ7qk3Rtfx9FvlYyR" name="Page-1">
    <mxGraphModel dx="2066" dy="1154" grid="1" gridSize="10" guides="1" tooltips="1" connect="1" arrows="1" fold="1" page="1" pageScale="1" pageWidth="827" pageHeight="1169" math="0" shadow="0">
      <root>
        <mxCell id="0" />
        <mxCell id="1" parent="0" />
        <mxCell id="a4NgTtWzEmu8b-htz5B3-7" style="edgeStyle=none;rounded=0;orthogonalLoop=1;jettySize=auto;html=1;entryX=0;entryY=0.5;entryDx=0;entryDy=0;" edge="1" parent="1" source="a4NgTtWzEmu8b-htz5B3-1" target="a4NgTtWzEmu8b-htz5B3-6">
          <mxGeometry relative="1" as="geometry" />
        </mxCell>
        <mxCell id="a4NgTtWzEmu8b-htz5B3-1" value="Processor1" style="rounded=0;whiteSpace=wrap;html=1;fillColor=#dae8fc;strokeColor=#6c8ebf;" vertex="1" parent="1">
          <mxGeometry x="100" y="320" width="120" height="60" as="geometry" />
        </mxCell>
        <mxCell id="a4NgTtWzEmu8b-htz5B3-9" style="edgeStyle=none;rounded=0;orthogonalLoop=1;jettySize=auto;html=1;" edge="1" parent="1" source="a4NgTtWzEmu8b-htz5B3-2" target="a4NgTtWzEmu8b-htz5B3-8">
          <mxGeometry relative="1" as="geometry" />
        </mxCell>
        <mxCell id="a4NgTtWzEmu8b-htz5B3-2" value="Processor2" style="rounded=0;whiteSpace=wrap;html=1;fillColor=#f8cecc;strokeColor=#b85450;" vertex="1" parent="1">
          <mxGeometry x="100" y="450" width="120" height="60" as="geometry" />
        </mxCell>
        <mxCell id="a4NgTtWzEmu8b-htz5B3-3" value="Resource" style="shape=document;whiteSpace=wrap;html=1;boundedLbl=1;fillColor=#e1d5e7;strokeColor=#9673a6;" vertex="1" parent="1">
          <mxGeometry x="400" y="350" width="120" height="80" as="geometry" />
        </mxCell>
        <mxCell id="a4NgTtWzEmu8b-htz5B3-10" style="edgeStyle=none;rounded=0;orthogonalLoop=1;jettySize=auto;html=1;" edge="1" parent="1" source="a4NgTtWzEmu8b-htz5B3-6" target="a4NgTtWzEmu8b-htz5B3-3">
          <mxGeometry relative="1" as="geometry" />
        </mxCell>
        <mxCell id="a4NgTtWzEmu8b-htz5B3-6" value="App1" style="ellipse;whiteSpace=wrap;html=1;aspect=fixed;fillColor=#fff2cc;strokeColor=#d6b656;" vertex="1" parent="1">
          <mxGeometry x="250" y="330" width="40" height="40" as="geometry" />
        </mxCell>
        <mxCell id="a4NgTtWzEmu8b-htz5B3-11" style="edgeStyle=none;rounded=0;orthogonalLoop=1;jettySize=auto;html=1;entryX=0;entryY=0.5;entryDx=0;entryDy=0;" edge="1" parent="1" source="a4NgTtWzEmu8b-htz5B3-8" target="a4NgTtWzEmu8b-htz5B3-3">
          <mxGeometry relative="1" as="geometry" />
        </mxCell>
        <mxCell id="a4NgTtWzEmu8b-htz5B3-8" value="App2" style="ellipse;whiteSpace=wrap;html=1;aspect=fixed;fillColor=#ffe6cc;strokeColor=#d79b00;" vertex="1" parent="1">
          <mxGeometry x="250" y="460" width="40" height="40" as="geometry" />
        </mxCell>
      </root>
    </mxGraphModel>
  </diagram>
</mxfile>
